<svg xmlns="http://www.w3.org/2000/svg" width="256" height="256" viewBox="0 0 256 256">
  <defs>
    <linearGradient id="bg" x1="0" y1="0" x2="1" y2="1">
      <stop offset="0" stop-color="#050817"/>
      <stop offset="1" stop-color="#16062d"/>
    </linearGradient>
    <linearGradient id="neon" x1="0" y1="0" x2="0" y2="1">
      <stop offset="0" stop-color="#18f7ff"/>
      <stop offset="0.52" stop-color="#3988ff"/>
      <stop offset="1" stop-color="#c82cff"/>
    </linearGradient>
    <filter id="glow" x="-40%" y="-40%" width="180%" height="180%">
      <feGaussianBlur stdDeviation="5" result="blur"/>
      <feMerge><feMergeNode in="blur"/><feMergeNode in="SourceGraphic"/></feMerge>
    </filter>
  </defs>
  <rect x="8" y="8" width="240" height="240" rx="34" fill="url(#bg)" stroke="#5525c8" stroke-width="8"/>
  <path d="M40 192 92 64h72l52 128h-38l-11-30H89l-11 30Zm61-64h54l-23-63h-8Z"
        fill="url(#neon)" filter="url(#glow)"/>
  <path d="m128 21 7 18 18 7-18 7-7 18-7-18-18-7 18-7Z" fill="#f8fbff" stroke="#18f7ff" stroke-width="3"/>
  <path d="M32 216h50M174 216h50" stroke="#18f7ff" stroke-width="6"/>
  <path d="M88 216h80" stroke="#b52cff" stroke-width="6"/>
</svg>
